{"title":"Baby.Blues.2008.720p.BRRip.XviD.AC3-PsychoLogic","uid":6591769,"size":2020748378,"categoryP":"video","categoryS":"hd___movies","magnet":"?xt=urn:btih:f4aad4216edec8f842b1390bb7708eae9292996f&amp;dn=Baby.Blues.2008.720p.BRRip.XviD.AC3-PsychoLogic&amp;tr=udp%3A%2F%2Ftracker.openbittorrent.com%3A80&amp;tr=udp%3A%2F%2Fopen.demonii.com%3A1337&amp;tr=udp%3A%2F%2Ftracker.coppersurfer.tk%3A6969&amp;tr=udp%3A%2F%2Fexodus.desync.com%3A6969","seeders":1,"leechers":1,"uploader":"PsychoLogic","files":4,"time":1312860254,"description":"Release Information:\n\nBaby.Blues.2008.720p.BRRip.XviD.AC3-PsychoLogic\n\nSource                           : Baby.Blues.2008.720p.BluRay.x264-BRMP\nSubtitles                        : None\nLanguage                         : English\nEncoded By                       : PsychoLogic\nSample Included                  : Yes\n\nMovie Information                : http://www.imdb.com/title/tt0972359/\nGenre                            : Drama | Horror | Thriller\nDirectors                        : Lars Jacobson, Amardeep Kaleka\nCast                             : Colleen Porch, Aiden Kersh and Ridge Canipe\nPlot                             : On a secluded family farm, a mother suffers a psychotic break due to postpartum depression, forcing the eldest son to protect his sibling from the mother they have always known and loved. \n\nGeneral\nFormat                           : AVI\nFormat/Info                      : Audio Video Interleave\nFile size                        : 1.86 GiB\nDuration                         : 1h 17mn\nOverall bit rate                 : 3 457 Kbps\nWriting application              : VirtualDubMod 1.5.10.2 (build 2540/release)\nWriting library                  : VirtualDubMod build 2540/release\n\nVideo\nID                               : 0\nFormat                           : MPEG-4 Visual\nFormat profile                   : Advanced Simple@L5\nFormat settings, BVOP            : 2\nFormat settings, QPel            : No\nFormat settings, GMC             : No warppoints\nFormat settings, Matrix          : Default (H.263)\nCodec ID                         : XVID\nCodec ID/Hint                    : XviD\nDuration                         : 1h 17mn\nBit rate                         : 3 000 Kbps\nWidth                            : 1 280 pixels\nHeight                           : 720 pixels\nDisplay aspect ratio             : 16:9\nFrame rate                       : 23.976 fps\nColor space                      : YUV\nChroma subsampling               : 4:2:0\nBit depth                        : 8 bits\nScan type                        : Progressive\nCompression mode                 : Lossy\nBits/(Pixel*Frame)               : 0.136\nStream size                      : 1.61 GiB (87%)\nWriting library                  : XviD 1.2.1 (UTC 2008-12-04)\n\nAudio\nID                               : 1\nFormat                           : AC-3\nFormat/Info                      : Audio Coding 3\nMode extension                   : CM (complete main)\nCodec ID                         : 2000\nDuration                         : 1h 16mn\nBit rate mode                    : Constant\nBit rate                         : 448 Kbps\nChannel(s)                       : 6 channels\nChannel positions                : Front: L C R, Side: L R, LFE\nSampling rate                    : 48.0 KHz\nBit depth                        : 16 bits\nCompression mode                 : Lossy\nStream size                      : 247 MiB (13%)\nAlignment                        : Split accross interleaves\nInterleave, duration             : 42 ms (1.00 video frame)\nInterleave, preload duration     : 500 ms\n\n","torrent":{"xt":"urn:btih:f4aad4216edec8f842b1390bb7708eae9292996f","amp;dn":"Baby.Blues.2008.720p.BRRip.XviD.AC3-PsychoLogic","amp;tr":["udp%3A%2F%2Ftracker.openbittorrent.com%3A80","udp%3A%2F%2Fopen.demonii.com%3A1337","udp%3A%2F%2Ftracker.coppersurfer.tk%3A6969","udp%3A%2F%2Fexodus.desync.com%3A6969"],"infoHash":"f4aad4216edec8f842b1390bb7708eae9292996f","infoHashBuffer":{"type":"Buffer","data":[244,170,212,33,110,222,200,248,66,177,57,11,183,112,142,174,146,146,153,111]},"announce":[],"urlList":[]}}